<svg id="visual" viewBox="0 0 960 540" width="960" height="540" xmlns="http://www.w3.org/2000/svg" xmlns:xlink="http://www.w3.org/1999/xlink" version="1.1"><rect x="0" y="0" width="960" height="540" fill="#001220"></rect><path d="M0 399L22.8 394.7C45.7 390.3 91.3 381.7 137 374.3C182.7 367 228.3 361 274 365.5C319.7 370 365.3 385 411.2 390.2C457 395.3 503 390.7 548.8 377.2C594.7 363.7 640.3 341.3 686 342.8C731.7 344.3 777.3 369.7 823 381.7C868.7 393.7 914.3 392.3 937.2 391.7L960 391L960 541L937.2 541C914.3 541 868.7 541 823 541C777.3 541 731.7 541 686 541C640.3 541 594.7 541 548.8 541C503 541 457 541 411.2 541C365.3 541 319.7 541 274 541C228.3 541 182.7 541 137 541C91.3 541 45.7 541 22.8 541L0 541Z" fill="#2533c4"></path><path d="M0 399L22.8 398.7C45.7 398.3 91.3 397.7 137 400C182.7 402.3 228.3 407.7 274 409.8C319.7 412 365.3 411 411.2 413.7C457 416.3 503 422.7 548.8 420.8C594.7 419 640.3 409 686 398.8C731.7 388.7 777.3 378.3 823 372C868.7 365.7 914.3 363.3 937.2 362.2L960 361L960 541L937.2 541C914.3 541 868.7 541 823 541C777.3 541 731.7 541 686 541C640.3 541 594.7 541 548.8 541C503 541 457 541 411.2 541C365.3 541 319.7 541 274 541C228.3 541 182.7 541 137 541C91.3 541 45.7 541 22.8 541L0 541Z" fill="#1f28a0"></path><path d="M0 422L22.8 420.5C45.7 419 91.3 416 137 418.5C182.7 421 228.3 429 274 428.7C319.7 428.3 365.3 419.7 411.2 418.7C457 417.7 503 424.3 548.8 426.3C594.7 428.3 640.3 425.7 686 429.2C731.7 432.7 777.3 442.3 823 442C868.7 441.7 914.3 431.3 937.2 426.2L960 421L960 541L937.2 541C914.3 541 868.7 541 823 541C777.3 541 731.7 541 686 541C640.3 541 594.7 541 548.8 541C503 541 457 541 411.2 541C365.3 541 319.7 541 274 541C228.3 541 182.7 541 137 541C91.3 541 45.7 541 22.8 541L0 541Z" fill="#191e7d"></path><path d="M0 480L22.8 481.3C45.7 482.7 91.3 485.3 137 486.5C182.7 487.7 228.3 487.3 274 487.3C319.7 487.3 365.3 487.7 411.2 485.8C457 484 503 480 548.8 472.7C594.7 465.3 640.3 454.7 686 448.3C731.7 442 777.3 440 823 438.3C868.7 436.7 914.3 435.3 937.2 434.7L960 434L960 541L937.2 541C914.3 541 868.7 541 823 541C777.3 541 731.7 541 686 541C640.3 541 594.7 541 548.8 541C503 541 457 541 411.2 541C365.3 541 319.7 541 274 541C228.3 541 182.7 541 137 541C91.3 541 45.7 541 22.8 541L0 541Z" fill="#12145c"></path><path d="M0 508L22.8 505.7C45.7 503.3 91.3 498.7 137 495.5C182.7 492.3 228.3 490.7 274 492.3C319.7 494 365.3 499 411.2 498.8C457 498.7 503 493.3 548.8 489.8C594.7 486.3 640.3 484.7 686 488.3C731.7 492 777.3 501 823 501.8C868.7 502.7 914.3 495.3 937.2 491.7L960 488L960 541L937.2 541C914.3 541 868.7 541 823 541C777.3 541 731.7 541 686 541C640.3 541 594.7 541 548.8 541C503 541 457 541 411.2 541C365.3 541 319.7 541 274 541C228.3 541 182.7 541 137 541C91.3 541 45.7 541 22.8 541L0 541Z" fill="#0c093d"></path></svg>